<?xml version="1.0" encoding="UTF-8" standalone="no"?>
<!-- Created with Inkscape (http://www.inkscape.org/) -->

<svg
   version="1.1"
   id="svg2"
   xml:space="preserve"
   width="248.65536"
   height="248.65103"
   viewBox="0 0 248.65536 248.65104"
   sodipodi:docname="riso-logo.svg"
   inkscape:version="1.2 (dc2aedaf03, 2022-05-15)"
   xmlns:inkscape="http://www.inkscape.org/namespaces/inkscape"
   xmlns:sodipodi="http://sodipodi.sourceforge.net/DTD/sodipodi-0.dtd"
   xmlns="http://www.w3.org/2000/svg"
   xmlns:svg="http://www.w3.org/2000/svg"
   xmlns:rdf="http://www.w3.org/1999/02/22-rdf-syntax-ns#"
   xmlns:cc="http://creativecommons.org/ns#"
   xmlns:dc="http://purl.org/dc/elements/1.1/"><metadata
     id="metadata8"><rdf:RDF><cc:Work
         rdf:about=""><dc:format>image/svg+xml</dc:format><dc:type
           rdf:resource="http://purl.org/dc/dcmitype/StillImage" /></cc:Work></rdf:RDF></metadata><defs
     id="defs6" /><sodipodi:namedview
     pagecolor="#ffffff"
     bordercolor="#666666"
     borderopacity="1"
     objecttolerance="10"
     gridtolerance="10"
     guidetolerance="10"
     inkscape:pageopacity="0"
     inkscape:pageshadow="2"
     inkscape:window-width="1500"
     inkscape:window-height="930"
     id="namedview4"
     showgrid="false"
     inkscape:zoom="1.9632053"
     inkscape:cx="175.98771"
     inkscape:cy="104.16638"
     inkscape:window-x="-6"
     inkscape:window-y="-6"
     inkscape:window-maximized="1"
     inkscape:current-layer="g10"
     inkscape:showpageshadow="2"
     inkscape:pagecheckerboard="0"
     inkscape:deskcolor="#d1d1d1" /><g
     id="g10"
     inkscape:groupmode="layer"
     inkscape:label="ink_ext_XXXXXX"
     transform="matrix(1.3333333,0,0,-1.3333333,-31.471851,229.67997)"><path
       id="path1610"
       style="fill:#ffffff;fill-opacity:1;fill-rule:nonzero;stroke:none;stroke-width:0.1"
       d="M 115.10352,-14.216797 C 89.849739,-13.821516 64.932047,-2.611841 48.000844,16.150713 32.969607,32.529202 24.054896,54.441759 23.633058,76.689045 23.107974,97.504618 29.6847,118.49756 42.332472,135.07678 c 13.283372,17.6649 32.988534,30.47162 54.640299,35.06299 21.585309,4.71024 44.846489,1.5249 64.253669,-9.08276 19.25289,-10.41134 34.66317,-27.78355 42.54402,-48.21821 7.00356,-17.915828 8.22625,-38.016306 3.49161,-56.657891 C 203.3248,40.482267 195.21094,25.848566 183.91025,14.254335 170.79818,0.67301447 153.50894,-8.885575 134.94727,-12.449219 128.4194,-13.738468 121.75626,-14.31918 115.10352,-14.216797 Z M 86.587891,29.597656 c 0.489839,0.459029 -0.493509,0.116611 0,0 z M 116.85938,136.70898 c 0.34582,0.18838 -0.20448,0.39265 -0.11719,0.0801 0.0261,-0.0405 0.0708,-0.0696 0.11719,-0.0801 z" /><path
       d="m 147.12086,90.342563 v 0.0168 c -8.36,0 -15.1368,-6.7765 -15.1368,-15.135902 V 29.721056 c 0,-8.3609 -6.7769,-15.1371 -15.1363,-15.1371 -8.3602,0 -15.1375,6.7762 -15.1375,15.1371 0,-8.3609 -6.777005,-15.1371 -15.136705,-15.1371 -8.3602,0 -15.1367,6.7762 -15.1367,15.1371 0,8.359 6.7765,15.1352 15.1367,15.1352 8.3597,0 15.136705,6.7797 15.136705,15.1387 v 45.486094 c 0,8.36 6.7773,15.137 15.1375,15.137 8.3594,0 15.1363,-6.777 15.1363,-15.137 0,8.36 6.7768,15.137 15.1368,15.137 8.36,0 15.137,-6.777 15.137,-15.137 0,-8.359187 -6.777,-15.138487 -15.137,-15.138487 z m -30.2731,61.637487 c 8.3594,0 15.1363,-6.77699 15.1363,-15.136 0,-8.35999 -6.7769,-15.13699 -15.1363,-15.13699 -8.3602,0 -15.1375,6.777 -15.1375,15.13699 0,8.35901 6.7773,15.13601 15.1375,15.136 z m 0,5.30701 c -43.223105,0 -78.2629,-35.03901 -78.2629,-78.261697 0,-43.222207 35.039795,-78.26130619 78.2629,-78.26130619 43.2221,0 78.26109,35.03909919 78.26109,78.26130619 0,43.222697 -35.03899,78.261697 -78.26109,78.261697"
       style="fill:#000000;fill-opacity:1;fill-rule:nonzero;stroke:none;stroke-width:0.1"
       id="path22"
       inkscape:connector-curvature="0" /></g></svg>
