<?xml version="1.0" encoding="UTF-8" standalone="no"?>
<svg
   width="128"
   height="128"
   viewBox="0 0 33.866666 33.866668"
   version="1.1"
   id="svg8"
   inkscape:version="1.1 (c68e22c387, 2021-05-23)"
   sodipodi:docname="brink_logo.svg"
   inkscape:export-filename="C:\Users\erikb\Downloads\brink_logo.png"
   inkscape:export-xdpi="364.45001"
   inkscape:export-ydpi="364.45001"
   xmlns:inkscape="http://www.inkscape.org/namespaces/inkscape"
   xmlns:sodipodi="http://sodipodi.sourceforge.net/DTD/sodipodi-0.dtd"
   xmlns="http://www.w3.org/2000/svg"
   xmlns:svg="http://www.w3.org/2000/svg"
   xmlns:rdf="http://www.w3.org/1999/02/22-rdf-syntax-ns#"
   xmlns:cc="http://creativecommons.org/ns#"
   xmlns:dc="http://purl.org/dc/elements/1.1/">
  <defs
     id="defs2" />
  <sodipodi:namedview
     id="base"
     pagecolor="#ffffff"
     bordercolor="#666666"
     borderopacity="1.0"
     inkscape:pageopacity="0.0"
     inkscape:pageshadow="2"
     inkscape:zoom="3.959798"
     inkscape:cx="24.875006"
     inkscape:cy="61.619305"
     inkscape:document-units="mm"
     inkscape:current-layer="layer1"
     inkscape:document-rotation="0"
     showgrid="false"
     units="px"
     inkscape:window-width="1500"
     inkscape:window-height="938"
     inkscape:window-x="-6"
     inkscape:window-y="-6"
     inkscape:window-maximized="1"
     inkscape:pagecheckerboard="true" />
  <metadata
     id="metadata5">
    <rdf:RDF>
      <cc:Work
         rdf:about="">
        <dc:format>image/svg+xml</dc:format>
        <dc:type
           rdf:resource="http://purl.org/dc/dcmitype/StillImage" />
        <dc:title />
      </cc:Work>
    </rdf:RDF>
  </metadata>
  <g
     inkscape:label="Layer 1"
     inkscape:groupmode="layer"
     id="layer1">
    <path
       id="path851"
       style="opacity:0.993233;fill:#ffffff;fill-opacity:1;stroke:#000000;stroke-width:0.565;stroke-linejoin:miter;stroke-miterlimit:4;stroke-dasharray:none;stroke-opacity:1"
       d="M 10.583526,2.9104167 4.2337197,9.2606101 10.583526,15.610415 H 23.283528 L 29.632947,9.2606101 23.283528,2.9111904 C 19.050194,2.9103488 14.81686,2.9104167 10.583526,2.9104167 Z"
       sodipodi:nodetypes="ccccccc" />
    <path
       id="path853"
       style="opacity:0.993233;fill:#ffffff;fill-opacity:1;stroke:#000000;stroke-width:0.565;stroke-linejoin:miter;stroke-miterlimit:4;stroke-dasharray:none;stroke-opacity:1"
       d="m 10.583331,18.256251 -6.3498063,6.350194 6.3498063,6.349805 h 12.700002 l 6.349419,-6.349805 -6.349419,-6.34942 c -4.233334,-8.42e-4 -8.466668,-7.74e-4 -12.700002,-7.74e-4 z"
       sodipodi:nodetypes="ccccccc" />
    <path
       id="path854"
       style="opacity:0.993233;fill:#2dd4bf;fill-opacity:1;stroke:none;stroke-width:0.999999;stroke-opacity:1"
       d="M 64.5 11 L 64.5 59 L 88 59 L 111.99805 35 L 88 11.001953 L 88 11 L 64.5 11 z "
       transform="scale(0.26458333)" />
    <path
       id="path856"
       style="opacity:0.993233;fill:#2dd4bf;fill-opacity:1;stroke:none;stroke-width:0.999999;stroke-opacity:1"
       d="M 64.5 69 L 64.5 117 L 88 117 L 111.99805 93 L 88 69.001953 L 88 69 L 64.5 69 z "
       transform="scale(0.26458333)" />
    <path
       id="path844"
       style="opacity:0.993233;fill:none;fill-opacity:1;stroke:#000000;stroke-width:0.565;stroke-linejoin:miter;stroke-miterlimit:4;stroke-dasharray:none;stroke-opacity:1"
       d="M 10.583526,2.9104167 4.2337197,9.2606101 10.583526,15.610415 H 23.283528 L 29.632947,9.2606101 23.283528,2.9111904 C 19.050194,2.9103488 14.81686,2.9104167 10.583526,2.9104167 Z"
       sodipodi:nodetypes="ccccccc" />
    <path
       id="path1496"
       style="opacity:0.993233;fill:none;fill-opacity:1;stroke:#000000;stroke-width:0.565;stroke-linejoin:miter;stroke-miterlimit:4;stroke-dasharray:none;stroke-opacity:1"
       d="m 10.583331,18.256251 -6.3498063,6.350194 6.3498063,6.349805 h 12.700002 l 6.349419,-6.349805 -6.349419,-6.34942 c -4.233334,-8.42e-4 -8.466668,-7.74e-4 -12.700002,-7.74e-4 z"
       sodipodi:nodetypes="ccccccc" />
  </g>
</svg>
