<?xml version="1.0" encoding="UTF-8" standalone="no"?>
<!-- Created with Inkscape (http://www.inkscape.org/) -->

<svg
   version="1.1"
   id="svg824"
   width="258.13544"
   height="258.13544"
   viewBox="0 0 258.13544 258.13543"
   sodipodi:docname="repub-hafa.svg"
   inkscape:version="1.1 (c68e22c387, 2021-05-23)"
   inkscape:export-filename="C:\Users\erikb\repub.png"
   inkscape:export-xdpi="250.09229"
   inkscape:export-ydpi="250.09229"
   xmlns:inkscape="http://www.inkscape.org/namespaces/inkscape"
   xmlns:sodipodi="http://sodipodi.sourceforge.net/DTD/sodipodi-0.dtd"
   xmlns="http://www.w3.org/2000/svg"
   xmlns:svg="http://www.w3.org/2000/svg">
  <defs
     id="defs828" />
  <sodipodi:namedview
     id="namedview826"
     pagecolor="#ffffff"
     bordercolor="#666666"
     borderopacity="1.0"
     inkscape:pageshadow="2"
     inkscape:pageopacity="0.0"
     inkscape:pagecheckerboard="0"
     showgrid="false"
     fit-margin-top="0"
     fit-margin-left="0"
     fit-margin-right="0"
     fit-margin-bottom="0"
     inkscape:zoom="0.85"
     inkscape:cx="149.39068"
     inkscape:cy="76.568272"
     inkscape:window-width="1500"
     inkscape:window-height="930"
     inkscape:window-x="-6"
     inkscape:window-y="-6"
     inkscape:window-maximized="1"
     inkscape:current-layer="g830"
     inkscape:rotation="-15" />
  <g
     inkscape:groupmode="layer"
     inkscape:label="Image"
     id="g830"
     transform="translate(69.988369,70.288029)">
    <g
       id="g1013"
       transform="matrix(1.0762588,0,0,1.0762588,-41.123253,-11.189782)"
       style="stroke:#ffffff;stroke-opacity:1;stroke-width:28.09381951;stroke-miterlimit:4;stroke-dasharray:none">
      <path
         d="m -10.717043,54.52489 v -1.631291 q 0.9321624,-0.233022 4.4277827,-1.398249 3.7286624,-1.398244 8.855567,-3.029535 5.3599545,-1.864328 11.6520653,-3.728663 6.292119,-2.09737 12.584229,-3.728661 v 88.555699 l 19.342433,11.18599 v 1.39825 H -11.18313 v -1.39825 L 2.1002285,129.79723 V 62.681336 Z m 63.15419,-13.050314 q 6.52516,0 10.719901,4.427784 4.427783,4.427782 4.427783,10.719901 0,6.292118 -4.427783,10.719902 -4.194741,4.427784 -10.719901,4.427784 -6.525155,0 -10.952938,-4.427784 -4.194749,-4.427784 -4.194749,-10.719902 0,-6.292119 4.194749,-10.719901 4.427783,-4.427784 10.952938,-4.427784 z"
         style="font-size:32.0028px;line-height:1.25;font-family:'reMarkable Portrait Web';-inkscape-font-specification:'reMarkable Portrait Web';letter-spacing:0px;word-spacing:0px;stroke-width:28.09381951;stroke:#ffffff;stroke-opacity:1;stroke-miterlimit:4;stroke-dasharray:none"
         id="path1009" />
      <path
         d="m 197.38853,30.288596 q 0,12.817271 -5.59299,22.37196 -5.593,9.321653 -14.6816,15.613771 -9.08861,6.292117 -20.74068,9.321652 -11.41903,3.029534 -23.30413,3.029534 v -2.563449 q 6.52515,-1.631291 13.05031,-5.126911 6.7582,-3.728663 11.8851,-9.321653 5.12692,-5.59299 8.3895,-13.050315 3.26257,-7.69036 3.26257,-17.245055 0,-16.545935 -10.02077,-26.1006303 Q 149.8481,-2.570231 132.37,-2.570231 h -8.62252 V 128.16595 l 18.6433,12.58423 v 1.39825 H 80.168747 v -1.39825 L 96.015554,128.16595 V 1.8575525 L 80.168747,-10.726678 v -1.398249 h 59.658573 q 12.81728,0 23.30414,2.7964988 10.71989,2.5634492 18.17722,7.9234038 7.69037,5.3599472 11.8851,13.2833504 4.19475,7.92341 4.19475,18.41027 z"
         style="font-size:32.0028px;line-height:1.25;font-family:'reMarkable Portrait Web';-inkscape-font-specification:'reMarkable Portrait Web';letter-spacing:0px;word-spacing:0px;stroke-width:28.09381951;stroke:#ffffff;stroke-opacity:1;stroke-miterlimit:4;stroke-dasharray:none"
         id="path1011" />
    </g>
    <g
       id="g1000"
       transform="matrix(1.0762588,0,0,1.0762588,-41.123253,-11.189782)">
      <path
         d="m -10.717043,54.52489 v -1.631291 q 0.9321624,-0.233022 4.4277827,-1.398249 3.7286624,-1.398244 8.855567,-3.029535 5.3599545,-1.864328 11.6520653,-3.728663 6.292119,-2.09737 12.584229,-3.728661 v 88.555699 l 19.342433,11.18599 v 1.39825 H -11.18313 v -1.39825 L 2.1002285,129.79723 V 62.681336 Z m 63.15419,-13.050314 q 6.52516,0 10.719901,4.427784 4.427783,4.427782 4.427783,10.719901 0,6.292118 -4.427783,10.719902 -4.194741,4.427784 -10.719901,4.427784 -6.525155,0 -10.952938,-4.427784 -4.194749,-4.427784 -4.194749,-10.719902 0,-6.292119 4.194749,-10.719901 4.427783,-4.427784 10.952938,-4.427784 z"
         style="font-size:32.0028px;line-height:1.25;font-family:'reMarkable Portrait Web';-inkscape-font-specification:'reMarkable Portrait Web';letter-spacing:0px;word-spacing:0px;stroke-width:5.82604"
         id="path3174" />
      <path
         d="m 197.38853,30.288596 q 0,12.817271 -5.59299,22.37196 -5.593,9.321653 -14.6816,15.613771 -9.08861,6.292117 -20.74068,9.321652 -11.41903,3.029534 -23.30413,3.029534 v -2.563449 q 6.52515,-1.631291 13.05031,-5.126911 6.7582,-3.728663 11.8851,-9.321653 5.12692,-5.59299 8.3895,-13.050315 3.26257,-7.69036 3.26257,-17.245055 0,-16.545935 -10.02077,-26.1006303 Q 149.8481,-2.570231 132.37,-2.570231 h -8.62252 V 128.16595 l 18.6433,12.58423 v 1.39825 H 80.168747 v -1.39825 L 96.015554,128.16595 V 1.8575525 L 80.168747,-10.726678 v -1.398249 h 59.658573 q 12.81728,0 23.30414,2.7964988 10.71989,2.5634492 18.17722,7.9234038 7.69037,5.3599472 11.8851,13.2833504 4.19475,7.92341 4.19475,18.41027 z"
         style="font-size:32.0028px;line-height:1.25;font-family:'reMarkable Portrait Web';-inkscape-font-specification:'reMarkable Portrait Web';letter-spacing:0px;word-spacing:0px;stroke-width:5.82604"
         id="path3176" />
    </g>
  </g>
</svg>
